<?xml version="1.0" encoding="UTF-8"?>
<svg width="65.759mm" height="65.759mm" version="1.1" viewBox="0 0 65.759 65.759" xmlns="http://www.w3.org/2000/svg">
 <g transform="translate(-4.898)">
  <path transform="matrix(.35032 0 0 .43817 -11.698 .95686)" d="m136.05 21.087c-0.23437 0.05859-0.46679 0.09961-0.69726 0.12305-0.22657 0.02735-0.45899 0.04102-0.69727 0.04102-0.67969 0-1.2266-0.1875-1.6406-0.5625-0.41015-0.37109 0.57225-1.0781 0.76758-0.83203 0.19531 0.24609 0.55078 0.36914 1.0664 0.36914 0.16015 0 0.34961-0.02539 0.56836-0.07617 0.22265-0.04687 0.38086-0.08984 0.47461-0.12891h0.1582zm6.8438-2.1387h-4.7227v-0.89062h1.8164l1.125 4e-6h1.7812zm8.127 0h-5.9062v-1.2246c0.41016-0.35156 0.82032-0.70312 1.2305-1.0547 0.41407-0.35156 0.79883-0.70117 1.1543-1.0488 0.75-0.72656 1.2637-1.3027 1.541-1.7285 0.27734-0.42969 0.41601-0.89258 0.41601-1.3887 0-0.45312-0.15039-0.80664-0.45117-1.0605-0.29687-0.25781-0.71289-0.38672-1.248-0.38672-0.35547 0-0.74023 0.0625-1.1543 0.1875-0.41407 0.125-0.81837 0.31641-1.2129 0.57422h-0.0586v-1.2305c0.27735-0.13672 0.64649-0.26172 1.1074-0.375 0.46485-0.11328 0.91407-0.16992 1.3477-0.16992 0.89453 0 1.5957 0.2168 2.1035 0.65039 0.50781 0.42969 0.76172 1.0137 0.76172 1.752 0 0.33203-0.043 0.64258-0.1289 0.93164-0.082 0.28516-0.20508 0.55664-0.36914 0.81445-0.15235 0.24219-0.33204 0.48047-0.53907 0.71484-0.20312 0.23438-0.45117 0.49414-0.74414 0.7793-0.41797 0.41016-0.84961 0.80859-1.2949 1.1953-0.44531 0.38281-0.86133 0.73828-1.248 1.0664h4.6934zm3.6621 0h-1.4004v-1.6699h1.4004zm8.3203-4.8867c0 0.76172-0.0879 1.4531-0.26368 2.0742-0.17187 0.62109-0.43359 1.1504-0.78515 1.5879-0.35547 0.44531-0.80079 0.78906-1.3359 1.0312-0.53515 0.24219-1.1641 0.36328-1.8867 0.36328-0.20313 0-0.39453-0.01172-0.57422-0.03516-0.17969-0.01953-0.33984-0.05274-0.48047-0.09961v-1.1191h0.0586c0.11328 0.05859 0.27344 0.11523 0.48047 0.16992 0.20703 0.05078 0.43749 0.07617 0.6914 0.07617 0.86328 0 1.5391-0.25781 2.0274-0.77344 0.49219-0.51953 0.77734-1.2344 0.85547-2.1445-0.36329 0.21875-0.70509 0.375-1.0254 0.46875s-0.66991 0.14062-1.0488 0.14062c-0.35938 0-0.68555-0.03516-0.97852-0.10547-0.28906-0.07031-0.58008-0.20703-0.87305-0.41016-0.34375-0.23828-0.60351-0.54102-0.77929-0.9082-0.17188-0.36719-0.25782-0.80664-0.25782-1.3184 0-0.89062 0.29297-1.6152 0.87891-2.1738 0.58594-0.55859 1.3008-0.83789 2.1445-0.83789 0.42187 0 0.8125 0.06641 1.1719 0.19922 0.35937 0.12891 0.67383 0.32422 0.94336 0.58594 0.33203 0.32422 0.58788 0.74219 0.76757 1.2539 0.17969 0.50781 0.26954 1.166 0.26954 1.9746zm-1.1836-0.25195c0-0.60547-0.0625-1.0918-0.1875-1.459-0.125-0.36719-0.29687-0.65234-0.51562-0.85547-0.18359-0.17578-0.38086-0.30078-0.5918-0.375-0.21094-0.07813-0.43946-0.11719-0.68555-0.11719-0.5625 0-1.0078 0.17578-1.3359 0.52734-0.32422 0.35156-0.48633 0.8457-0.48633 1.4824 0 0.37109 0.0527 0.67383 0.1582 0.9082 0.10547 0.23438 0.2832 0.43945 0.5332 0.61523 0.17579 0.12109 0.36915 0.20312 0.58008 0.24609 0.21094 0.03906 0.44532 0.05859 0.70313 0.05859 0.30469 0 0.61328-0.04102 0.92578-0.12305 0.3125-0.08203 0.60547-0.20117 0.8789-0.35742 4e-3 -0.08203 8e-3 -0.16211 0.0117-0.24023 8e-3 -0.08203 0.0117-0.18555 0.0117-0.31055zm9.0234 2.6836h-1.2949v2.4551h-1.125v-2.4551h-4.1777v-1.3477l4.2246-4.9219h1.0781v5.332h1.2949zm-2.4199-0.9375v-3.9375l-3.3809 3.9375zm9.3516 3.3926h-4.7227v-0.89062h1.8164v-5.8477h-1.8164v-0.79688c0.24609 0 0.50977-0.01953 0.79102-0.05859 0.28125-0.04297 0.49414-0.10351 0.63867-0.18164 0.17969-0.09766 0.32031-0.2207 0.42188-0.36914 0.10547-0.15234 0.16601-0.35547 0.18164-0.60938h0.9082v7.8633h1.7812zm13.945-0.64453c-0.47656 0.21875-0.99804 0.41016-1.5644 0.57422-0.5625 0.16016-1.1074 0.24024-1.6348 0.24024-0.67969 0-1.3027-0.09375-1.8691-0.28125s-1.0488-0.46875-1.4473-0.84375c-0.40235-0.37891-0.71289-0.85156-0.93164-1.418-0.21875-0.57031-0.32813-1.2363-0.32813-1.998 0-1.3945 0.40625-2.4941 1.2188-3.2988 0.81641-0.80859 1.9356-1.2129 3.3574-1.2129 0.49609 0 1.002 0.06055 1.5176 0.18164 0.51953 0.11719 1.0781 0.31836 1.6758 0.60352v1.377h-0.10547c-0.12109-0.09375-0.29687-0.2168-0.52734-0.36914s-0.45703-0.2793-0.67969-0.38086c-0.26953-0.12109-0.57617-0.2207-0.91992-0.29883-0.33984-0.08203-0.72656-0.12305-1.1602-0.12305-0.97657 0-1.75 0.31445-2.3203 0.94336-0.56641 0.625-0.84961 1.4727-0.84961 2.543 0 1.1289 0.29688 2.0078 0.89063 2.6367 0.59375 0.625 1.4023 0.9375 2.4258 0.9375 0.375 0 0.74805-0.03711 1.1191-0.11133 0.375-0.07422 0.70313-0.16992 0.98438-0.28711v-2.1387h-2.3379v-1.0195h3.4863zm7.207 0.64453h-4.7226v-0.89062h1.8164v-5.8477h-1.8164v-0.79688c0.24609 0 0.50976-0.01953 0.79101-0.05859 0.28125-0.04297 0.49415-0.10351 0.63868-0.18164 0.17969-0.09766 0.32031-0.2207 0.42187-0.36914 0.10547-0.15234 0.16601-0.35547 0.18164-0.60938h0.9082v7.8633h1.7812zm-76.84 10.635c0 1.5664-0.24609 2.7168-0.73828 3.4512-0.48828 0.73047-1.248 1.0957-2.2793 1.0957-1.0469 0-1.8125-0.37109-2.2969-1.1133-0.48047-0.74219-0.72071-1.8828-0.72071-3.4219 0-1.5508 0.24414-2.6953 0.73243-3.4336 0.48828-0.74219 1.25-1.1133 2.2852-1.1133 1.0469 0 1.8106 0.37695 2.291 1.1309 0.48437 0.75 0.72656 1.8848 0.72656 3.4043zm-1.541 2.6602c0.13671-0.31641 0.22851-0.6875 0.27539-1.1133 0.0508-0.42969 0.0762-0.94531 0.0762-1.5469 0-0.59375-0.0254-1.1094-0.0762-1.5469-0.0469-0.4375-0.14062-0.80859-0.28125-1.1133-0.13672-0.30078-0.32422-0.52734-0.5625-0.67969-0.23438-0.15234-0.53712-0.22852-0.90821-0.22852-0.36719 0-0.67187 0.07617-0.91406 0.22852-0.23828 0.15234-0.42773 0.38281-0.56836 0.69141-0.13281 0.28906-0.22461 0.66602-0.27539 1.1309-0.0469 0.46484-0.0703 0.97461-0.0703 1.5293 0 0.60938 0.0215 1.1191 0.0645 1.5293 0.0429 0.41016 0.13473 0.77734 0.27539 1.1016 0.12891 0.30469 0.31055 0.53711 0.54492 0.69726 0.23829 0.16016 0.55274 0.24024 0.94336 0.24024 0.36719 0 0.67188-0.07617 0.91407-0.22852 0.24219-0.15234 0.42969-0.38281 0.5625-0.69141zm15.504 3.8438c-0.23437 0.05859-0.46679 0.09961-0.69726 0.12305-0.22657 0.02735-0.45899 0.04102-0.69727 0.04102-0.67969 0-1.2266-0.1875-1.6406-0.5625-0.41015-0.37109-0.63281-0.9043-0.66796-1.5996-0.0937 0.01563-0.18555 0.02539-0.27539 0.0293-0.0859 0.0078-0.16993 0.01172-0.25196 0.01172-0.61328 0-1.1719-0.10156-1.6758-0.30469-0.5-0.20312-0.92578-0.49805-1.2773-0.88477-0.35157-0.38672-0.62305-0.86133-0.81446-1.4238-0.1875-0.5625-0.28125-1.2051-0.28125-1.9277 0-0.71094 0.0937-1.3477 0.28125-1.9102 0.1875-0.56641 0.46094-1.0508 0.82032-1.4531 0.34375-0.38281 0.76953-0.67578 1.2773-0.87891 0.51172-0.20312 1.0684-0.30469 1.6699-0.30469 0.625 0 1.1856 0.10352 1.6816 0.31055 0.5 0.20312 0.92383 0.49414 1.2715 0.87305 0.35547 0.39062 0.62695 0.86914 0.81445 1.4355 0.19141 0.56641 0.28711 1.209 0.28711 1.9277 0 1.0664-0.21875 1.9648-0.65625 2.6953-0.43359 0.73047-1.0176 1.2422-1.752 1.5352 0.0156 0.44531 0.12107 0.79102 0.3164 1.0371 0.19531 0.24609 0.55078 0.36914 1.0664 0.36914 0.16015 0 0.34961-0.02539 0.56836-0.07617 0.22265-0.04687 0.38086-0.08984 0.47461-0.12891h0.1582zm-1.3828-6.498c0-1.1328-0.25391-2.0059-0.76172-2.6191-0.50781-0.61719-1.2012-0.92578-2.0801-0.92578-0.88672 0-1.584 0.30859-2.0918 0.92578-0.5039 0.61328-0.75585 1.4863-0.75585 2.6191 0 1.1445 0.25781 2.0215 0.77343 2.6309 0.51563 0.60547 1.207 0.9082 2.0742 0.9082s1.5566-0.30273 2.0684-0.9082c0.51563-0.60938 0.77344-1.4863 0.77344-2.6309zm8.2266 4.3594h-4.7227v-0.89062h1.8164v-5.8477h-1.8164v-0.79688c0.2461 0 0.50977-0.01953 0.79102-0.05859 0.28125-0.04297 0.49414-0.10351 0.63867-0.18164 0.17969-0.09766 0.32031-0.2207 0.42188-0.36914 0.10547-0.15234 0.16601-0.35547 0.18164-0.60938h0.9082v7.8633h1.7812zm8.0566-2.7715c0 0.40625-0.0742 0.79492-0.22265 1.166-0.14844 0.37109-0.35157 0.68359-0.60938 0.9375-0.28125 0.27344-0.61718 0.48438-1.0078 0.63281-0.38672 0.14453-0.83594 0.2168-1.3477 0.2168-0.47656 0-0.93554-0.05078-1.377-0.15234-0.44141-0.09766-0.81445-0.2168-1.1191-0.35742v-1.2363h0.082c0.32031 0.20312 0.69531 0.37695 1.125 0.52148 0.42969 0.14062 0.85156 0.21094 1.2656 0.21094 0.27735 0 0.54493-0.03906 0.80274-0.11719 0.26172-0.07813 0.49414-0.21484 0.69726-0.41016 0.17188-0.16797 0.30079-0.36914 0.38672-0.60352 0.0898-0.23438 0.13477-0.50586 0.13477-0.81445 0-0.30078-0.0527-0.55469-0.1582-0.76172-0.10157-0.20703-0.24415-0.37305-0.42774-0.49805-0.20313-0.14844-0.45117-0.25195-0.74414-0.31055-0.28906-0.0625-0.61328-0.09375-0.97266-0.09375-0.34375 0-0.67578 0.02344-0.99609 0.07031-0.31641 0.04687-0.58984 0.09375-0.82031 0.14062v-4.4941h5.25v1.0254h-4.1191v2.3203c0.16797-0.01563 0.33984-0.02735 0.51562-0.03516 0.17578-0.0078 0.32812-0.01172 0.45703-0.01172 0.47266 0 0.88672 0.04102 1.2422 0.12305 0.35547 0.07813 0.68164 0.21875 0.97852 0.42188 0.3125 0.21484 0.55469 0.49219 0.72656 0.83203 0.17187 0.33984 0.25781 0.76562 0.25781 1.2773zm3.7324 2.7715h-1.4004v-1.6699h1.4004zm8.332 0h-5.9062v-1.2246c0.41016-0.35156 0.82032-0.70312 1.2305-1.0547 0.41407-0.35156 0.79883-0.70117 1.1543-1.0488 0.75-0.72656 1.2637-1.3027 1.541-1.7285 0.27734-0.42969 0.41601-0.89258 0.41601-1.3887 0-0.45312-0.15039-0.80664-0.45117-1.0605-0.29687-0.25781-0.71289-0.38672-1.248-0.38672-0.35547 0-0.74023 0.0625-1.1543 0.1875-0.41407 0.125-0.81836 0.31641-1.2129 0.57422h-0.0586v-1.2305c0.27735-0.13672 0.64649-0.26172 1.1074-0.375 0.46485-0.11328 0.91407-0.16992 1.3477-0.16992 0.89453 0 1.5957 0.2168 2.1035 0.65039 0.50781 0.42969 0.76171 1.0137 0.76171 1.752 0 0.33203-0.043 0.64258-0.1289 0.93164-0.082 0.28516-0.20508 0.55664-0.36914 0.81445-0.15235 0.24219-0.33204 0.48047-0.53907 0.71484-0.20312 0.23438-0.45117 0.49414-0.74414 0.7793-0.41797 0.41016-0.84961 0.80859-1.2949 1.1953-0.44531 0.38281-0.86133 0.73828-1.248 1.0664h4.6934zm7.6172-4.8867c0 0.76172-0.0879 1.4531-0.26367 2.0742-0.17187 0.62109-0.43359 1.1504-0.78516 1.5879-0.35547 0.44531-0.80078 0.78906-1.3359 1.0312-0.53516 0.24219-1.1641 0.36328-1.8867 0.36328-0.20313 0-0.39453-0.01172-0.57422-0.03516-0.17969-0.01953-0.33984-0.05274-0.48047-0.09961v-1.1191h0.0586c0.11329 0.05859 0.27344 0.11523 0.48047 0.16992 0.20703 0.05078 0.4375 0.07617 0.69141 0.07617 0.86328 0 1.5391-0.25781 2.0273-0.77344 0.49219-0.51953 0.77734-1.2344 0.85547-2.1445-0.36328 0.21875-0.70508 0.375-1.0254 0.46875s-0.66992 0.14062-1.0488 0.14062c-0.35937 0-0.68554-0.03516-0.97851-0.10547-0.28907-0.07031-0.58008-0.20703-0.87305-0.41016-0.34375-0.23828-0.60351-0.54102-0.7793-0.9082-0.17187-0.36719-0.25781-0.80664-0.25781-1.3184 0-0.89062 0.29297-1.6152 0.87891-2.1738 0.58593-0.55859 1.3008-0.83789 2.1445-0.83789 0.42187 0 0.8125 0.06641 1.1719 0.19922 0.35938 0.12891 0.67383 0.32422 0.94336 0.58594 0.33203 0.32422 0.58789 0.74219 0.76758 1.2539 0.17969 0.50781 0.26953 1.166 0.26953 1.9746zm-1.1836-0.25195c0-0.60547-0.0625-1.0918-0.1875-1.459-0.125-0.36719-0.29688-0.65234-0.51563-0.85547-0.18359-0.17578-0.38086-0.30078-0.59179-0.375-0.21094-0.07813-0.43946-0.11719-0.68555-0.11719-0.5625 0-1.0078 0.17578-1.3359 0.52734-0.32422 0.35156-0.48633 0.8457-0.48633 1.4824 0 0.37109 0.0527 0.67383 0.15821 0.9082 0.10547 0.23438 0.2832 0.43945 0.5332 0.61523 0.17578 0.12109 0.36914 0.20312 0.58008 0.24609 0.21093 0.03906 0.44531 0.05859 0.70312 0.05859 0.30469 0 0.61328-0.04102 0.92578-0.12305 0.3125-0.08203 0.60547-0.20117 0.87891-0.35742 4e-3 -0.08203 8e-3 -0.16211 0.0117-0.24023 8e-3 -0.08203 0.0117-0.18555 0.0117-0.31055zm9.0234 2.6836h-1.2949v2.4551h-1.125v-2.4551h-4.1777v-1.3477l4.2246-4.9219h1.0781v5.332h1.2949zm-2.4199-0.9375v-3.9375l-3.3809 3.9375zm15.668 2.748c-0.47656 0.21875-0.99804 0.41016-1.5644 0.57422-0.5625 0.16016-1.1074 0.24024-1.6348 0.24024-0.67969 0-1.3027-0.09375-1.8691-0.28125s-1.0488-0.46875-1.4473-0.84375c-0.40235-0.37891-0.71289-0.85156-0.93164-1.418-0.21875-0.57031-0.32813-1.2363-0.32813-1.998 0-1.3945 0.40625-2.4941 1.2188-3.2988 0.81641-0.80859 1.9356-1.2129 3.3574-1.2129 0.49609 0 1.002 0.06055 1.5176 0.18164 0.51953 0.11719 1.0781 0.31836 1.6758 0.60352v1.377h-0.10547c-0.12109-0.09375-0.29687-0.2168-0.52734-0.36914s-0.45703-0.2793-0.67969-0.38086c-0.26953-0.12109-0.57617-0.2207-0.91992-0.29883-0.33984-0.08203-0.72656-0.12305-1.1602-0.12305-0.97657 0-1.75 0.31445-2.3203 0.94336-0.56641 0.625-0.84961 1.4727-0.84961 2.543 0 1.1289 0.29688 2.0078 0.89063 2.6367 0.59375 0.625 1.4023 0.9375 2.4258 0.9375 0.375 0 0.74805-0.03711 1.1191-0.11133 0.375-0.07422 0.70313-0.16992 0.98438-0.28711v-2.1387h-2.3379v-1.0195h3.4863zm7.207 0.64453h-4.7226v-0.89062h1.8164v-5.8477h-1.8164v-0.79688c0.24609 0 0.50976-0.01953 0.79101-0.05859 0.28125-0.04297 0.49415-0.10351 0.63868-0.18164 0.17969-0.09766 0.32031-0.2207 0.42187-0.36914 0.10547-0.15234 0.16601-0.35547 0.18164-0.60938h0.9082v7.8633h1.7812zm13.324-8.7246-3.0117 4.3125 3.0059 4.4121h-1.3418l-2.3789-3.5918-2.4375 3.5918h-1.2656l3.041-4.3594-2.9707-4.3652h1.3359l2.3496 3.5449 2.4024-3.5449zm6.7441 8.7246h-4.7226v-0.89062h1.8164v-5.8477h-1.8164v-0.79688c0.24609 0 0.50976-0.01953 0.79101-0.05859 0.28125-0.04297 0.49414-0.10351 0.63867-0.18164 0.17969-0.09766 0.32032-0.2207 0.42188-0.36914 0.10547-0.15234 0.16601-0.35547 0.18164-0.60938h0.9082v7.8633h1.7812zm4.2012 0h-1.2539l-0.76758-7.6992v-1.0254zm-108.62 15v-8.7246 7.6934zm7.5059-4.3652c0 1.5664-0.24609 2.7168-0.73828 3.4512-0.48828 0.73047-1.248 1.0957-2.2793 1.0957-1.0469 0-1.8125-0.37109-2.2969-1.1133-0.48047-0.74219-0.72071-1.8828-0.72071-3.4219 0-1.5508 0.24414-2.6953 0.73243-3.4336 0.48828-0.74219 1.25-1.1133 2.2852-1.1133 1.0469 0 1.8106 0.37695 2.291 1.1309 0.48437 0.75 0.72656 1.8848 0.72656 3.4043zm-1.541 2.6602c0.13671-0.31641 0.22851-0.6875 0.27539-1.1133 0.0508-0.42969 0.0762-0.94531 0.0762-1.5469 0-0.59375-0.0254-1.1094-0.0762-1.5469-0.0469-0.4375-0.14062-0.80859-0.28125-1.1133-0.13672-0.30078-0.32422-0.52734-0.5625-0.67969-0.23438-0.15234-0.53712-0.22852-0.90821-0.22852-0.36719 0-0.67187 0.07617-0.91406 0.22852-0.23828 0.15234-0.42773 0.38281-0.56836 0.69141-0.13281 0.28906-0.22461 0.66602-0.27539 1.1309-0.0469 0.46484-0.0703 0.97461-0.0703 1.5293 0 0.60938 0.0215 1.1191 0.0645 1.5293 0.0429 0.41016 0.13473 0.77734 0.27539 1.1016 0.12891 0.30469 0.31055 0.53711 0.54492 0.69726 0.23829 0.16016 0.55274 0.24024 0.94336 0.24024 0.36719 0 0.67188-0.07617 0.91407-0.22852 0.24219-0.15234 0.42969-0.38281 0.5625-0.69141zm15.504 3.8438c-0.23437 0.05859-0.46679 0.09961-0.69726 0.12305-0.22657 0.02735-0.45899 0.04102-0.69727 0.04102-0.67969 0-1.2266-0.1875-1.6406-0.5625-0.41015-0.37109-0.63281-0.9043-0.66796-1.5996-0.0937 0.01563-0.18555 0.02539-0.27539 0.0293-0.0859 0.0078-0.16993 0.01172-0.25196 0.01172-0.61328 0-1.1719-0.10156-1.6758-0.30469-0.5-0.20312-0.92578-0.49805-1.2773-0.88477-0.35157-0.38672-0.62305-0.86133-0.81446-1.4238-0.1875-0.5625-0.28125-1.2051-0.28125-1.9277 0-0.71094 0.0937-1.3477 0.28125-1.9102 0.1875-0.56641 0.46094-1.0508 0.82032-1.4531 0.34375-0.38281 0.76953-0.67578 1.2773-0.87891 0.51172-0.20312 1.0684-0.30469 1.6699-0.30469 0.625 0 1.1856 0.10352 1.6816 0.31055 0.5 0.20312 0.92383 0.49414 1.2715 0.87305 0.35547 0.39062 0.62695 0.86914 0.81445 1.4355 0.19141 0.56641 0.28711 1.209 0.28711 1.9277 0 1.0664-0.21875 1.9648-0.65625 2.6953-0.43359 0.73047-1.0176 1.2422-1.752 1.5352 0.0156 0.44531 0.12107 0.79102 0.3164 1.0371 0.19531 0.24609 0.55078 0.36914 1.0664 0.36914 0.16015 0 0.34961-0.02539 0.56836-0.07617 0.22265-0.04687 0.38086-0.08984 0.47461-0.12891h0.1582zm-1.3828-6.498c0-1.1328-0.25391-2.0059-0.76172-2.6191-0.50781-0.61719-1.2012-0.92578-2.0801-0.92578-0.88672 0-1.584 0.30859-2.0918 0.92578-0.5039 0.61328-0.75585 1.4863-0.75585 2.6191 0 1.1445 0.25781 2.0215 0.77343 2.6309 0.51563 0.60547 1.207 0.9082 2.0742 0.9082s1.5566-0.30273 2.0684-0.9082c0.51563-0.60938 0.77344-1.4863 0.77344-2.6309zm8.2266 4.3594h-4.7227v-0.89062h1.8164v-5.8477h-1.8164v-0.79688c0.2461 0 0.50977-0.01953 0.79102-0.05859 0.28125-0.04297 0.49414-0.10351 0.63867-0.18164 0.17969-0.09766 0.32031-0.2207 0.42188-0.36914 0.10547-0.15234 0.16601-0.35547 0.18164-0.60938h0.9082v7.8633h1.7812zm8.1914-2.4316c0 0.75391-0.29492 1.3809-0.88477 1.8809-0.58593 0.5-1.3242 0.75-2.2148 0.75-0.94531 0-1.6992-0.24414-2.2617-0.73242-0.55859-0.48828-0.83789-1.1133-0.83789-1.875 0-0.48438 0.14062-0.92188 0.42187-1.3125 0.28125-0.39453 0.67774-0.70703 1.1895-0.9375v-0.03516c-0.46875-0.25-0.81641-0.52344-1.043-0.82031-0.22266-0.29688-0.33399-0.66797-0.33399-1.1133 0-0.65625 0.26953-1.2031 0.8086-1.6406 0.53906-0.4375 1.2246-0.65625 2.0566-0.65625 0.87109 0 1.5664 0.20898 2.0859 0.62695s0.77929 0.94922 0.77929 1.5938c0 0.39453-0.12305 0.7832-0.36914 1.166-0.24609 0.37891-0.60742 0.67578-1.084 0.89062v0.03516c0.54687 0.23438 0.96484 0.52344 1.2539 0.86719 0.28907 0.34375 0.4336 0.78125 0.4336 1.3125zm-1.3887-4.2598c0-0.41797-0.16211-0.75-0.48633-0.99609-0.32031-0.25-0.73047-0.375-1.2305-0.375-0.49219 0-0.89648 0.11719-1.2129 0.35156-0.3125 0.23438-0.46875 0.55078-0.46875 0.94922 0 0.28125 0.0781 0.52539 0.23437 0.73242 0.16016 0.20312 0.4004 0.38476 0.72071 0.54492 0.14453 0.07031 0.35156 0.16211 0.62109 0.27539 0.27344 0.11328 0.53906 0.20703 0.79687 0.28125 0.38672-0.25781 0.6543-0.52539 0.80274-0.80273s0.22266-0.59766 0.22266-0.96094zm0.18164 4.3711c0-0.35938-0.0801-0.64648-0.24024-0.86133-0.15625-0.21875-0.46484-0.4375-0.92578-0.65625-0.18359-0.08594-0.38477-0.16602-0.60352-0.24023-0.21875-0.07422-0.50976-0.17773-0.87304-0.31055-0.35157 0.19141-0.63477 0.45117-0.84961 0.7793-0.21094 0.32812-0.31641 0.69922-0.31641 1.1133 0 0.52734 0.18164 0.96289 0.54492 1.3066 0.36329 0.34375 0.82423 0.51562 1.3828 0.51562 0.57031 0 1.0254-0.14648 1.3652-0.43945 0.34375-0.29297 0.51563-0.69531 0.51563-1.207zm4.8047 2.3203h-1.4004v-1.6699h1.4004zm8.332 0h-5.9062v-1.2246c0.41016-0.35156 0.82032-0.70312 1.2305-1.0547 0.41407-0.35156 0.79883-0.70117 1.1543-1.0488 0.75-0.72656 1.2637-1.3027 1.541-1.7285 0.27734-0.42969 0.41601-0.89258 0.41601-1.3887 0-0.45312-0.15039-0.80664-0.45117-1.0605-0.29687-0.25781-0.71289-0.38672-1.248-0.38672-0.35547 0-0.74023 0.0625-1.1543 0.1875-0.41407 0.125-0.81836 0.31641-1.2129 0.57422h-0.0586v-1.2305c0.27735-0.13672 0.64649-0.26172 1.1074-0.375 0.46485-0.11328 0.91407-0.16992 1.3477-0.16992 0.89453 0 1.5957 0.2168 2.1035 0.65039 0.50781 0.42969 0.76171 1.0137 0.76171 1.752 0 0.33203-0.043 0.64258-0.1289 0.93164-0.082 0.28516-0.20508 0.55664-0.36914 0.81445-0.15235 0.24219-0.33204 0.48047-0.53907 0.71484-0.20312 0.23438-0.45117 0.49414-0.74414 0.7793-0.41797 0.41016-0.84961 0.80859-1.2949 1.1953-0.44531 0.38281-0.86133 0.73828-1.248 1.0664h4.6934zm6.8613-4.2012c0.1875 0.16797 0.3418 0.37891 0.46289 0.63281 0.12109 0.25391 0.18164 0.58203 0.18164 0.98438 0 0.39844-0.0723 0.76367-0.21679 1.0957-0.14453 0.33203-0.34766 0.62109-0.60938 0.86719-0.29297 0.27344-0.63867 0.47656-1.0371 0.60938-0.39453 0.12891-0.82812 0.19336-1.3008 0.19336-0.48437 0-0.96094-0.05859-1.4297-0.17578-0.46875-0.11328-0.85351-0.23828-1.1543-0.375v-1.2246h0.0879c0.33203 0.21875 0.72265 0.40039 1.1719 0.54492s0.88281 0.2168 1.3008 0.2168c0.24609 0 0.50781-0.04102 0.78516-0.12305 0.27735-0.08203 0.50196-0.20312 0.67383-0.36328 0.17969-0.17188 0.3125-0.36133 0.39844-0.56836 0.0898-0.20703 0.13476-0.46875 0.13476-0.78516 0-0.3125-0.0508-0.57031-0.15234-0.77344-0.0977-0.20703-0.23438-0.36914-0.41016-0.48633-0.17578-0.12109-0.38867-0.20312-0.63867-0.24609-0.25-0.04687-0.51953-0.07031-0.80859-0.07031h-0.52735v-0.97266h0.41016c0.59375 0 1.0664-0.12305 1.418-0.36914 0.35547-0.25 0.5332-0.61328 0.5332-1.0898 0-0.21094-0.0449-0.39453-0.13477-0.55078-0.0898-0.16016-0.21484-0.29102-0.375-0.39258-0.16797-0.10156-0.34765-0.17188-0.53906-0.21094-0.19141-0.03906-0.4082-0.05859-0.65039-0.05859-0.37109 0-0.76562 0.06641-1.1836 0.19922-0.41797 0.13281-0.81251 0.32031-1.1836 0.5625h-0.0586v-1.2246c0.27735-0.13672 0.64649-0.26172 1.1074-0.375 0.46485-0.11719 0.91407-0.17578 1.3477-0.17578 0.42578 0 0.80078 0.03906 1.125 0.11719 0.32422 0.07813 0.61719 0.20312 0.8789 0.375 0.28125 0.1875 0.49415 0.41406 0.63868 0.67969s0.21679 0.57617 0.21679 0.93164c0 0.48438-0.17187 0.9082-0.51562 1.2715-0.33985 0.35938-0.74219 0.58594-1.207 0.67969v0.08203c0.1875 0.03125 0.40234 0.09765 0.64453 0.19922 0.24219 0.09766 0.44726 0.2207 0.61523 0.36914zm8.3262 1.4297c0 0.40625-0.0742 0.79492-0.22265 1.166-0.14844 0.37109-0.35157 0.68359-0.60938 0.9375-0.28125 0.27344-0.61718 0.48438-1.0078 0.63281-0.38672 0.14453-0.83594 0.2168-1.3477 0.2168-0.47656 0-0.93554-0.05078-1.377-0.15234-0.44141-0.09766-0.81445-0.2168-1.1191-0.35742v-1.2363h0.082c0.32031 0.20312 0.69531 0.37695 1.125 0.52148 0.42969 0.14062 0.85156 0.21094 1.2656 0.21094 0.27734 0 0.54492-0.03906 0.80273-0.11719 0.26172-0.07813 0.49414-0.21484 0.69727-0.41016 0.17187-0.16797 0.30078-0.36914 0.38672-0.60352 0.0898-0.23438 0.13476-0.50586 0.13476-0.81445 0-0.30078-0.0527-0.55469-0.1582-0.76172-0.10157-0.20703-0.24415-0.37305-0.42774-0.49805-0.20312-0.14844-0.45117-0.25195-0.74414-0.31055-0.28906-0.0625-0.61328-0.09375-0.97265-0.09375-0.34375 0-0.67579 0.02344-0.9961 0.07031-0.31641 0.04687-0.58984 0.09375-0.82031 0.14062v-4.4941h5.25v1.0254h-4.1191v2.3203c0.16797-0.01563 0.33984-0.02735 0.51563-0.03516 0.17578-0.0078 0.32812-0.01172 0.45703-0.01172 0.47265 0 0.88671 0.04102 1.2422 0.12305 0.35547 0.07813 0.68165 0.21875 0.97852 0.42188 0.3125 0.21484 0.55469 0.49219 0.72656 0.83203 0.17187 0.33984 0.25781 0.76562 0.25781 1.2773zm13.518 2.127c-0.47656 0.21875-0.99804 0.41016-1.5644 0.57422-0.5625 0.16016-1.1074 0.24024-1.6348 0.24024-0.67969 0-1.3027-0.09375-1.8691-0.28125s-1.0488-0.46875-1.4473-0.84375c-0.40235-0.37891-0.71289-0.85156-0.93164-1.418-0.21875-0.57031-0.32813-1.2363-0.32813-1.998 0-1.3945 0.40625-2.4941 1.2188-3.2988 0.81641-0.80859 1.9356-1.2129 3.3574-1.2129 0.49609 0 1.002 0.06055 1.5176 0.18164 0.51953 0.11719 1.0781 0.31836 1.6758 0.60352v1.377h-0.10547c-0.12109-0.09375-0.29687-0.2168-0.52734-0.36914s-0.45703-0.2793-0.67969-0.38086c-0.26953-0.12109-0.57617-0.2207-0.91992-0.29883-0.33984-0.08203-0.72656-0.12305-1.1602-0.12305-0.97657 0-1.75 0.31445-2.3203 0.94336-0.56641 0.625-0.84961 1.4727-0.84961 2.543 0 1.1289 0.29688 2.0078 0.89063 2.6367 0.59375 0.625 1.4023 0.9375 2.4258 0.9375 0.375 0 0.74805-0.03711 1.1191-0.11133 0.375-0.07422 0.70313-0.16992 0.98438-0.28711v-2.1387h-2.3379v-1.0195h3.4863zm7.207 0.64453h-4.7226v-0.89062h1.8164v-5.8477h-1.8164v-0.79688c0.24609 0 0.50976-0.01953 0.79101-0.05859 0.28125-0.04297 0.49415-0.10351 0.63868-0.18164 0.17969-0.09766 0.32031-0.2207 0.42187-0.36914 0.10547-0.15234 0.16601-0.35547 0.18164-0.60938h0.9082v7.8633h1.7812zm13.324-8.7246-3.0117 4.3125 3.0059 4.4121h-1.3418l-2.3789-3.5918-2.4375 3.5918h-1.2656l3.041-4.3594-2.9707-4.3652h1.3359l2.3496 3.5449 2.4024-3.5449zm6.7441 8.7246h-4.7226v-0.89062h1.8164v-5.8477h-1.8164v-0.79688c0.24609 0 0.50976-0.01953 0.79101-0.05859 0.28125-0.04297 0.49414-0.10351 0.63867-0.18164 0.17969-0.09766 0.32032-0.2207 0.42188-0.36914 0.10547-0.15234 0.16601-0.35547 0.18164-0.60938h0.9082v7.8633h1.7812zm4.2012 0h-1.2539l-0.76758-7.6992v-1.0254zm-108.62 15v-8.7246 7.6934zm7.5059-4.3652c0 1.5664-0.24609 2.7168-0.73828 3.4512-0.48828 0.73047-1.248 1.0957-2.2793 1.0957-1.0469 0-1.8125-0.37109-2.2969-1.1133-0.48047-0.74219-0.72071-1.8828-0.72071-3.4219 0-1.5508 0.24414-2.6953 0.73243-3.4336 0.48828-0.74219 1.25-1.1133 2.2852-1.1133 1.0469 0 1.8106 0.37695 2.291 1.1309 0.48437 0.75 0.72656 1.8848 0.72656 3.4043zm-1.541 2.6602c0.13671-0.31641 0.22851-0.6875 0.27539-1.1133 0.0508-0.42969 0.0762-0.94531 0.0762-1.5469 0-0.59375-0.0254-1.1094-0.0762-1.5469-0.0469-0.4375-0.14062-0.80859-0.28125-1.1133-0.13672-0.30078-0.32422-0.52734-0.5625-0.67969-0.23438-0.15234-0.53712-0.22852-0.90821-0.22852-0.36719 0-0.67187 0.07617-0.91406 0.22852-0.23828 0.15234-0.42773 0.38281-0.56836 0.69141-0.13281 0.28906-0.22461 0.66602-0.27539 1.1309-0.0469 0.46484-0.0703 0.97461-0.0703 1.5293 0 0.60938 0.0215 1.1191 0.0645 1.5293 0.0429 0.41016 0.13473 0.77734 0.27539 1.1016 0.12891 0.30469 0.31055 0.53711 0.54492 0.69726 0.23829 0.16016 0.55274 0.24024 0.94336 0.24024 0.36719 0 0.67188-0.07617 0.91407-0.22852 0.24219-0.15234 0.42969-0.38281 0.5625-0.69141zm15.504 3.8438c-0.23437 0.05859-0.46679 0.09961-0.69726 0.12305-0.22657 0.02735-0.45899 0.04102-0.69727 0.04102-0.67969 0-1.2266-0.1875-1.6406-0.5625-0.41015-0.37109-0.63281-0.9043-0.66796-1.5996-0.0937 0.01563-0.18555 0.02539-0.27539 0.0293-0.0859 0.0078-0.16993 0.01172-0.25196 0.01172-0.61328 0-1.1719-0.10156-1.6758-0.30469-0.5-0.20312-0.92578-0.49805-1.2773-0.88477-0.35157-0.38672-0.62305-0.86133-0.81446-1.4238-0.1875-0.5625-0.28125-1.2051-0.28125-1.9277 0-0.71094 0.0937-1.3477 0.28125-1.9102 0.1875-0.56641 0.46094-1.0508 0.82032-1.4531 0.34375-0.38281 0.76953-0.67578 1.2773-0.87891 0.51172-0.20312 1.0684-0.30469 1.6699-0.30469 0.625 0 1.1856 0.10352 1.6816 0.31055 0.5 0.20312 0.92383 0.49414 1.2715 0.87305 0.35547 0.39062 0.62695 0.86914 0.81445 1.4355 0.19141 0.56641 0.28711 1.209 0.28711 1.9277 0 1.0664-0.21875 1.9648-0.65625 2.6953-0.43359 0.73047-1.0176 1.2422-1.752 1.5352 0.0156 0.44531 0.12107 0.79102 0.3164 1.0371 0.19531 0.24609 0.55078 0.36914 1.0664 0.36914 0.16015 0 0.34961-0.02539 0.56836-0.07617 0.22265-0.04687 0.38086-0.08984 0.47461-0.12891h0.1582zm-1.3828-6.498c0-1.1328-0.25391-2.0059-0.76172-2.6191-0.50781-0.61719-1.2012-0.92578-2.0801-0.92578-0.88672 0-1.584 0.30859-2.0918 0.92578-0.5039 0.61328-0.75585 1.4863-0.75585 2.6191 0 1.1445 0.25781 2.0215 0.77343 2.6309 0.51563 0.60547 1.207 0.9082 2.0742 0.9082s1.5566-0.30273 2.0684-0.9082c0.51563-0.60938 0.77344-1.4863 0.77344-2.6309zm8.7246 4.3594h-5.9062v-1.2246c0.41015-0.35156 0.82031-0.70312 1.2305-1.0547 0.41406-0.35156 0.79882-0.70117 1.1543-1.0488 0.75-0.72656 1.2637-1.3027 1.541-1.7285 0.27734-0.42969 0.41601-0.89258 0.41601-1.3887 0-0.45312-0.15039-0.80664-0.45117-1.0605-0.29687-0.25781-0.71289-0.38672-1.248-0.38672-0.35547 0-0.74024 0.0625-1.1543 0.1875s-0.81836 0.31641-1.2129 0.57422h-0.0586v-1.2305c0.27735-0.13672 0.64649-0.26172 1.1074-0.375 0.46484-0.11328 0.91406-0.16992 1.3476-0.16992 0.89453 0 1.5957 0.2168 2.1035 0.65039 0.50781 0.42969 0.76172 1.0137 0.76172 1.752 0 0.33203-0.043 0.64258-0.12891 0.93164-0.082 0.28516-0.20508 0.55664-0.36914 0.81445-0.15235 0.24219-0.33203 0.48047-0.53906 0.71484-0.20313 0.23438-0.45117 0.49414-0.74414 0.7793-0.41797 0.41016-0.84961 0.80859-1.2949 1.1953-0.44531 0.38281-0.86133 0.73828-1.248 1.0664h4.6934zm7.6172-4.3652c0 1.5664-0.2461 2.7168-0.73829 3.4512-0.48828 0.73047-1.248 1.0957-2.2793 1.0957-1.0469 0-1.8125-0.37109-2.2969-1.1133-0.48047-0.74219-0.7207-1.8828-0.7207-3.4219 0-1.5508 0.24414-2.6953 0.73242-3.4336 0.48828-0.74219 1.25-1.1133 2.2852-1.1133 1.0469 0 1.8105 0.37695 2.291 1.1309 0.48438 0.75 0.72657 1.8848 0.72657 3.4043zm-1.541 2.6602c0.13672-0.31641 0.22852-0.6875 0.27539-1.1133 0.0508-0.42969 0.0762-0.94531 0.0762-1.5469 0-0.59375-0.0254-1.1094-0.0762-1.5469-0.0469-0.4375-0.14062-0.80859-0.28125-1.1133-0.13672-0.30078-0.32422-0.52734-0.5625-0.67969-0.23437-0.15234-0.53711-0.22852-0.9082-0.22852-0.36719 0-0.67188 0.07617-0.91407 0.22852-0.23828 0.15234-0.42773 0.38281-0.56835 0.69141-0.13281 0.28906-0.22461 0.66602-0.2754 1.1309-0.0469 0.46484-0.0703 0.97461-0.0703 1.5293 0 0.60938 0.0215 1.1191 0.0645 1.5293 0.0429 0.41016 0.13473 0.77734 0.27539 1.1016 0.12891 0.30469 0.31055 0.53711 0.54492 0.69726 0.23828 0.16016 0.55273 0.24024 0.94336 0.24024 0.36719 0 0.67187-0.07617 0.91406-0.22852 0.24219-0.15234 0.42969-0.38281 0.5625-0.69141zm5.2148 1.7051h-1.4004v-1.6699h1.4004zm7.5645-4.2012c0.1875 0.16797 0.3418 0.37891 0.46289 0.63281 0.12109 0.25391 0.18164 0.58203 0.18164 0.98438 0 0.39844-0.0723 0.76367-0.2168 1.0957-0.14453 0.33203-0.34766 0.62109-0.60937 0.86719-0.29297 0.27344-0.63868 0.47656-1.0371 0.60938-0.39453 0.12891-0.82813 0.19336-1.3008 0.19336-0.48438 0-0.96094-0.05859-1.4297-0.17578-0.46875-0.11328-0.85352-0.23828-1.1543-0.375v-1.2246h0.0879c0.33203 0.21875 0.72266 0.40039 1.1719 0.54492 0.44921 0.14453 0.88281 0.2168 1.3008 0.2168 0.24609 0 0.50781-0.04102 0.78515-0.12305 0.27735-0.08203 0.50196-0.20312 0.67383-0.36328 0.17969-0.17188 0.3125-0.36133 0.39844-0.56836 0.0898-0.20703 0.13477-0.46875 0.13477-0.78516 0-0.3125-0.0508-0.57031-0.15235-0.77344-0.0976-0.20703-0.23437-0.36914-0.41015-0.48633-0.17579-0.12109-0.38868-0.20312-0.63868-0.24609-0.25-0.04687-0.51953-0.07031-0.80859-0.07031h-0.52734v-0.97266h0.41015c0.59375 0 1.0664-0.12305 1.418-0.36914 0.35547-0.25 0.5332-0.61328 0.5332-1.0898 0-0.21094-0.0449-0.39453-0.13476-0.55078-0.0899-0.16016-0.21485-0.29102-0.375-0.39258-0.16797-0.10156-0.34765-0.17188-0.53906-0.21094-0.19141-0.03906-0.4082-0.05859-0.65039-0.05859-0.3711 0-0.76563 0.06641-1.1836 0.19922-0.41797 0.13281-0.8125 0.32031-1.1836 0.5625h-0.0586v-1.2246c0.27735-0.13672 0.64649-0.26172 1.1074-0.375 0.46484-0.11719 0.91406-0.17578 1.3476-0.17578 0.42578 0 0.80078 0.03906 1.125 0.11719 0.32422 0.07813 0.61719 0.20312 0.87891 0.375 0.28125 0.1875 0.49414 0.41406 0.63867 0.67969s0.2168 0.57617 0.2168 0.93164c0 0.48438-0.17188 0.9082-0.51563 1.2715-0.33984 0.35938-0.74218 0.58594-1.207 0.67969v0.08203c0.1875 0.03125 0.40234 0.09765 0.64453 0.19922 0.24219 0.09766 0.44727 0.2207 0.61524 0.36914zm8.3262 1.4297c0 0.40625-0.0742 0.79492-0.22266 1.166-0.14843 0.37109-0.35156 0.68359-0.60937 0.9375-0.28125 0.27344-0.61719 0.48438-1.0078 0.63281-0.38671 0.14453-0.83593 0.2168-1.3476 0.2168-0.47657 0-0.93555-0.05078-1.377-0.15234-0.44141-0.09766-0.81446-0.2168-1.1192-0.35742v-1.2363h0.082c0.32031 0.20312 0.69531 0.37695 1.125 0.52148 0.42969 0.14062 0.85156 0.21094 1.2656 0.21094 0.27735 0 0.54493-0.03906 0.80274-0.11719 0.26171-0.07813 0.49413-0.21484 0.69726-0.41016 0.17187-0.16797 0.30078-0.36914 0.38672-0.60352 0.0899-0.23438 0.13477-0.50586 0.13477-0.81445 0-0.30078-0.0527-0.55469-0.15821-0.76172-0.10156-0.20703-0.24414-0.37305-0.42773-0.49805-0.20313-0.14844-0.45117-0.25195-0.74414-0.31055-0.28907-0.0625-0.61329-0.09375-0.97266-0.09375-0.34375 0-0.67578 0.02344-0.99609 0.07031-0.31641 0.04687-0.58985 0.09375-0.82032 0.14062v-4.4941h5.25v1.0254h-4.1191v2.3203c0.16797-0.01563 0.33985-0.02735 0.51563-0.03516 0.17578-0.0078 0.32812-0.01172 0.45703-0.01172 0.47265 0 0.88672 0.04102 1.2422 0.12305 0.35547 0.07813 0.68164 0.21875 0.97851 0.42188 0.3125 0.21484 0.55469 0.49219 0.72657 0.83203 0.17187 0.33984 0.25781 0.76562 0.25781 1.2773zm6.9316-1.4297c0.1875 0.16797 0.3418 0.37891 0.46289 0.63281 0.12109 0.25391 0.18164 0.58203 0.18164 0.98438 0 0.39844-0.0723 0.76367-0.2168 1.0957-0.14453 0.33203-0.34765 0.62109-0.60937 0.86719-0.29297 0.27344-0.63867 0.47656-1.0371 0.60938-0.39453 0.12891-0.82813 0.19336-1.3008 0.19336-0.48437 0-0.96094-0.05859-1.4297-0.17578-0.46875-0.11328-0.85351-0.23828-1.1543-0.375v-1.2246h0.0879c0.33203 0.21875 0.72266 0.40039 1.1719 0.54492s0.88281 0.2168 1.3008 0.2168c0.24609 0 0.50781-0.04102 0.78516-0.12305 0.27734-0.08203 0.50195-0.20312 0.67382-0.36328 0.17969-0.17188 0.31251-0.36133 0.39844-0.56836 0.0898-0.20703 0.13477-0.46875 0.13477-0.78516 0-0.3125-0.0508-0.57031-0.15235-0.77344-0.0976-0.20703-0.23437-0.36914-0.41015-0.48633-0.17578-0.12109-0.38867-0.20312-0.63867-0.24609-0.25-0.04687-0.51953-0.07031-0.8086-0.07031h-0.52734v-0.97266h0.41015c0.59375 0 1.0664-0.12305 1.418-0.36914 0.35547-0.25 0.53321-0.61328 0.53321-1.0898 0-0.21094-0.0449-0.39453-0.13477-0.55078-0.0898-0.16016-0.21484-0.29102-0.375-0.39258-0.16797-0.10156-0.34765-0.17188-0.53906-0.21094-0.19141-0.03906-0.4082-0.05859-0.65039-0.05859-0.37109 0-0.76563 0.06641-1.1836 0.19922-0.41797 0.13281-0.8125 0.32031-1.1836 0.5625h-0.0586v-1.2246c0.27734-0.13672 0.64648-0.26172 1.1074-0.375 0.46484-0.11719 0.91406-0.17578 1.3476-0.17578 0.42579 0 0.80079 0.03906 1.125 0.11719 0.32422 0.07813 0.61719 0.20312 0.87891 0.375 0.28125 0.1875 0.49414 0.41406 0.63867 0.67969s0.2168 0.57617 0.2168 0.93164c0 0.48438-0.17188 0.9082-0.51563 1.2715-0.33984 0.35938-0.74218 0.58594-1.207 0.67969v0.08203c0.1875 0.03125 0.40234 0.09765 0.64453 0.19922 0.24219 0.09766 0.44727 0.2207 0.61524 0.36914zm14.215 3.5566c-0.47656 0.21875-0.99804 0.41016-1.5644 0.57422-0.5625 0.16016-1.1074 0.24024-1.6348 0.24024-0.67969 0-1.3027-0.09375-1.8691-0.28125s-1.0488-0.46875-1.4473-0.84375c-0.40235-0.37891-0.71289-0.85156-0.93164-1.418-0.21875-0.57031-0.32813-1.2363-0.32813-1.998 0-1.3945 0.40625-2.4941 1.2188-3.2988 0.81641-0.80859 1.9356-1.2129 3.3574-1.2129 0.49609 0 1.002 0.06055 1.5176 0.18164 0.51953 0.11719 1.0781 0.31836 1.6758 0.60352v1.377h-0.10547c-0.12109-0.09375-0.29687-0.2168-0.52734-0.36914s-0.45703-0.2793-0.67969-0.38086c-0.26953-0.12109-0.57617-0.2207-0.91992-0.29883-0.33984-0.08203-0.72656-0.12305-1.1602-0.12305-0.97657 0-1.75 0.31445-2.3203 0.94336-0.56641 0.625-0.84961 1.4727-0.84961 2.543 0 1.1289 0.29688 2.0078 0.89063 2.6367 0.59375 0.625 1.4023 0.9375 2.4258 0.9375 0.375 0 0.74805-0.03711 1.1191-0.11133 0.375-0.07422 0.70313-0.16992 0.98438-0.28711v-2.1387h-2.3379v-1.0195h3.4863zm7.207 0.64453h-4.7226v-0.89062h1.8164v-5.8477h-1.8164v-0.79688c0.24609 0 0.50976-0.01953 0.79101-0.05859 0.28125-0.04297 0.49415-0.10351 0.63868-0.18164 0.17969-0.09766 0.32031-0.2207 0.42187-0.36914 0.10547-0.15234 0.16601-0.35547 0.18164-0.60938h0.9082v7.8633h1.7812zm13.324-8.7246-3.0117 4.3125 3.0059 4.4121h-1.3418l-2.3789-3.5918-2.4375 3.5918h-1.2656l3.041-4.3594-2.9707-4.3652h1.3359l2.3496 3.5449 2.4024-3.5449zm6.7441 8.7246h-4.7226v-0.89062h1.8164v-5.8477h-1.8164v-0.79688c0.24609 0 0.50976-0.01953 0.79101-0.05859 0.28125-0.04297 0.49414-0.10351 0.63867-0.18164 0.17969-0.09766 0.32032-0.2207 0.42188-0.36914 0.10547-0.15234 0.16601-0.35547 0.18164-0.60938h0.9082v7.8633h1.7812zm8.1504-7.418-3.9492 7.418h-1.2539l4.2012-7.6992h-4.9688v-1.0254h5.9707zm-91.096 24.557c-0.23437 0.05859-0.46679 0.09961-0.69726 0.12305-0.22657 0.02735-0.45899 0.04102-0.69727 0.04102-0.67969 0-1.2266-0.1875-1.6406-0.5625-0.41015-0.37109-0.63281-0.9043-0.66796-1.5996-0.0937 0.01563-0.18555 0.02539-0.27539 0.0293-0.0859 0.0078-0.16993 0.01172-0.25196 0.01172-0.61328 0-1.1719-0.10156-1.6758-0.30469-0.5-0.20312-0.92578-0.49805-1.2773-0.88477-0.35157-0.38672-0.62305-0.86133-0.81446-1.4238-0.1875-0.5625-0.28125-1.2051-0.28125-1.9277 0-0.71094 0.0937-1.3477 0.28125-1.9102 0.1875-0.56641 0.46094-1.0508 0.82032-1.4531 0.34375-0.38281 0.76953-0.67578 1.2773-0.87891 0.51172-0.20312 1.0684-0.30469 1.6699-0.30469 0.625 0 1.1856 0.10352 1.6816 0.31055 0.5 0.20312 0.92383 0.49414 1.2715 0.87305 0.35547 0.39062 0.62695 0.86914 0.81445 1.4355 0.19141 0.56641 0.28711 1.209 0.28711 1.9277 0 1.0664-0.21875 1.9648-0.65625 2.6953-0.43359 0.73047-1.0176 1.2422-1.752 1.5352 0.0156 0.44531 0.12107 0.79102 0.3164 1.0371 0.19531 0.24609 0.55078 0.36914 1.0664 0.36914 0.16015 0 0.34961-0.02539 0.56836-0.07617 0.22265-0.04687 0.38086-0.08984 0.47461-0.12891h0.1582zm-1.3828-6.498c0-1.1328-0.25391-2.0059-0.76172-2.6191-0.50781-0.61719-1.2012-0.92578-2.0801-0.92578-0.88672 0-1.584 0.30859-2.0918 0.92578-0.5039 0.61328-0.75585 1.4863-0.75585 2.6191 0 1.1445 0.25781 2.0215 0.77343 2.6309 0.51563 0.60547 1.207 0.9082 2.0742 0.9082s1.5566-0.30273 2.0684-0.9082c0.51563-0.60938 0.77344-1.4863 0.77344-2.6309zm8.7246 4.3594h-5.9062v-1.2246c0.41015-0.35156 0.82031-0.70312 1.2305-1.0547 0.41406-0.35156 0.79882-0.70117 1.1543-1.0488 0.75-0.72656 1.2637-1.3027 1.541-1.7285 0.27734-0.42969 0.41601-0.89258 0.41601-1.3887 0-0.45312-0.15039-0.80664-0.45117-1.0605-0.29687-0.25781-0.71289-0.38672-1.248-0.38672-0.35547 0-0.74024 0.0625-1.1543 0.1875s-0.81836 0.31641-1.2129 0.57422h-0.0586v-1.2305c0.27735-0.13672 0.64649-0.26172 1.1074-0.375 0.46484-0.11328 0.91406-0.16992 1.3476-0.16992 0.89453 0 1.5957 0.2168 2.1035 0.65039 0.50781 0.42969 0.76172 1.0137 0.76172 1.752 0 0.33203-0.043 0.64258-0.12891 0.93164-0.082 0.28516-0.20508 0.55664-0.36914 0.81445-0.15235 0.24219-0.33203 0.48047-0.53906 0.71484-0.20313 0.23438-0.45117 0.49414-0.74414 0.7793-0.41797 0.41016-0.84961 0.80859-1.2949 1.1953-0.44531 0.38281-0.86133 0.73828-1.248 1.0664h4.6934zm7.6289 0h-5.9062v-1.2246c0.41016-0.35156 0.82032-0.70312 1.2305-1.0547 0.41407-0.35156 0.79883-0.70117 1.1543-1.0488 0.75-0.72656 1.2637-1.3027 1.541-1.7285 0.27734-0.42969 0.41601-0.89258 0.41601-1.3887 0-0.45312-0.15039-0.80664-0.45117-1.0605-0.29687-0.25781-0.71289-0.38672-1.248-0.38672-0.35547 0-0.74023 0.0625-1.1543 0.1875-0.41407 0.125-0.81837 0.31641-1.2129 0.57422h-0.0586v-1.2305c0.27735-0.13672 0.64649-0.26172 1.1074-0.375 0.46485-0.11328 0.91407-0.16992 1.3477-0.16992 0.89453 0 1.5957 0.2168 2.1035 0.65039 0.50781 0.42969 0.76172 1.0137 0.76172 1.752 0 0.33203-0.043 0.64258-0.1289 0.93164-0.082 0.28516-0.20508 0.55664-0.36914 0.81445-0.15235 0.24219-0.33204 0.48047-0.53907 0.71484-0.20312 0.23438-0.45117 0.49414-0.74414 0.7793-0.41797 0.41016-0.84961 0.80859-1.2949 1.1953-0.44531 0.38281-0.86133 0.73828-1.248 1.0664h4.6934zm3.6621 0h-1.4004v-1.6699h1.4004zm8.2617-2.7715c0 0.40625-0.0742 0.79492-0.22265 1.166-0.14844 0.37109-0.35157 0.68359-0.60938 0.9375-0.28125 0.27344-0.61718 0.48438-1.0078 0.63281-0.38672 0.14453-0.83594 0.2168-1.3477 0.2168-0.47656 0-0.93554-0.05078-1.377-0.15234-0.44141-0.09766-0.81445-0.2168-1.1191-0.35742v-1.2363h0.082c0.32031 0.20312 0.69531 0.37695 1.125 0.52148 0.42969 0.14062 0.85156 0.21094 1.2656 0.21094 0.27735 0 0.54493-0.03906 0.80274-0.11719 0.26172-0.07813 0.49414-0.21484 0.69726-0.41016 0.17188-0.16797 0.30079-0.36914 0.38672-0.60352 0.0899-0.23438 0.13477-0.50586 0.13477-0.81445 0-0.30078-0.0527-0.55469-0.1582-0.76172-0.10157-0.20703-0.24415-0.37305-0.42774-0.49805-0.20313-0.14844-0.45117-0.25195-0.74414-0.31055-0.28906-0.0625-0.61328-0.09375-0.97266-0.09375-0.34375 0-0.67578 0.02344-0.99609 0.07031-0.31641 0.04687-0.58984 0.09375-0.82031 0.14062v-4.4941h5.25v1.0254h-4.1191v2.3203c0.16797-0.01563 0.33984-0.02735 0.51562-0.03516 0.17578-0.0078 0.32812-0.01172 0.45703-0.01172 0.47266 0 0.88672 0.04102 1.2422 0.12305 0.35547 0.07813 0.68164 0.21875 0.97852 0.42188 0.3125 0.21484 0.55469 0.49219 0.72656 0.83203 0.17187 0.33984 0.25781 0.76562 0.25781 1.2773zm7.7637 0.33984c0 0.75391-0.29492 1.3809-0.88476 1.8809-0.58594 0.5-1.3242 0.75-2.2148 0.75-0.94531 0-1.6992-0.24414-2.2617-0.73242-0.55859-0.48828-0.83789-1.1133-0.83789-1.875 0-0.48438 0.14062-0.92188 0.42187-1.3125 0.28125-0.39453 0.67774-0.70703 1.1894-0.9375v-0.03516c-0.46875-0.25-0.8164-0.52344-1.043-0.82031-0.22265-0.29688-0.33398-0.66797-0.33398-1.1133 0-0.65625 0.26953-1.2031 0.80859-1.6406 0.53907-0.4375 1.2246-0.65625 2.0566-0.65625 0.8711 0 1.5664 0.20898 2.0859 0.62695s0.7793 0.94922 0.7793 1.5938c0 0.39453-0.12305 0.7832-0.36914 1.166-0.24609 0.37891-0.60742 0.67578-1.084 0.89062v0.03516c0.54688 0.23438 0.96485 0.52344 1.2539 0.86719s0.43359 0.78125 0.43359 1.3125zm-1.3887-4.2598c0-0.41797-0.16211-0.75-0.48633-0.99609-0.32031-0.25-0.73046-0.375-1.2305-0.375-0.49219 0-0.89649 0.11719-1.2129 0.35156-0.3125 0.23438-0.46875 0.55078-0.46875 0.94922 0 0.28125 0.0781 0.52539 0.23438 0.73242 0.16015 0.20312 0.40039 0.38476 0.7207 0.54492 0.14453 0.07031 0.35157 0.16211 0.6211 0.27539 0.27343 0.11328 0.53906 0.20703 0.79687 0.28125 0.38672-0.25781 0.6543-0.52539 0.80274-0.80273 0.14843-0.27734 0.22265-0.59766 0.22265-0.96094zm0.18164 4.3711c0-0.35938-0.0801-0.64648-0.24023-0.86133-0.15625-0.21875-0.46485-0.4375-0.92578-0.65625-0.18359-0.08594-0.38477-0.16602-0.60352-0.24023-0.21875-0.07422-0.50976-0.17773-0.87305-0.31055-0.35156 0.19141-0.63476 0.45117-0.8496 0.7793-0.21094 0.32812-0.31641 0.69922-0.31641 1.1133 0 0.52734 0.18164 0.96289 0.54492 1.3066s0.82422 0.51562 1.3828 0.51562c0.57031 0 1.0254-0.14648 1.3652-0.43945 0.34375-0.29297 0.51562-0.69531 0.51562-1.207zm8.8359-0.11133c0 0.75391-0.29492 1.3809-0.88477 1.8809-0.58593 0.5-1.3242 0.75-2.2148 0.75-0.94531 0-1.6992-0.24414-2.2617-0.73242-0.55859-0.48828-0.83789-1.1133-0.83789-1.875 0-0.48438 0.14063-0.92188 0.42188-1.3125 0.28125-0.39453 0.67773-0.70703 1.1894-0.9375v-0.03516c-0.46875-0.25-0.81641-0.52344-1.043-0.82031-0.22265-0.29688-0.33398-0.66797-0.33398-1.1133 0-0.65625 0.26953-1.2031 0.80859-1.6406s1.2246-0.65625 2.0566-0.65625c0.87109 0 1.5664 0.20898 2.0859 0.62695s0.7793 0.94922 0.7793 1.5938c0 0.39453-0.12305 0.7832-0.36915 1.166-0.24609 0.37891-0.60742 0.67578-1.084 0.89062v0.03516c0.54687 0.23438 0.96484 0.52344 1.2539 0.86719 0.28906 0.34375 0.43359 0.78125 0.43359 1.3125zm-1.3887-4.2598c0-0.41797-0.16211-0.75-0.48633-0.99609-0.32031-0.25-0.73047-0.375-1.2305-0.375-0.49219 0-0.89648 0.11719-1.2129 0.35156-0.3125 0.23438-0.46875 0.55078-0.46875 0.94922 0 0.28125 0.0781 0.52539 0.23438 0.73242 0.16015 0.20312 0.40039 0.38476 0.7207 0.54492 0.14453 0.07031 0.35156 0.16211 0.62109 0.27539 0.27344 0.11328 0.53907 0.20703 0.79688 0.28125 0.38672-0.25781 0.6543-0.52539 0.80273-0.80273 0.14844-0.27734 0.22266-0.59766 0.22266-0.96094zm0.18164 4.3711c0-0.35938-0.0801-0.64648-0.24024-0.86133-0.15625-0.21875-0.46484-0.4375-0.92578-0.65625-0.18359-0.08594-0.38476-0.16602-0.60351-0.24023-0.21875-0.07422-0.50977-0.17773-0.87305-0.31055-0.35156 0.19141-0.63476 0.45117-0.84961 0.7793-0.21093 0.32812-0.3164 0.69922-0.3164 1.1133 0 0.52734 0.18164 0.96289 0.54492 1.3066s0.82422 0.51562 1.3828 0.51562c0.57031 0 1.0254-0.14648 1.3652-0.43945 0.34375-0.29297 0.51563-0.69531 0.51563-1.207zm14.59 1.6758c-0.47656 0.21875-0.99804 0.41016-1.5644 0.57422-0.5625 0.16016-1.1074 0.24024-1.6348 0.24024-0.67969 0-1.3027-0.09375-1.8691-0.28125s-1.0488-0.46875-1.4473-0.84375c-0.40235-0.37891-0.71289-0.85156-0.93164-1.418-0.21875-0.57031-0.32813-1.2363-0.32813-1.998 0-1.3945 0.40625-2.4941 1.2188-3.2988 0.81641-0.80859 1.9356-1.2129 3.3574-1.2129 0.49609 0 1.002 0.06055 1.5176 0.18164 0.51953 0.11719 1.0781 0.31836 1.6758 0.60352v1.377h-0.10547c-0.12109-0.09375-0.29687-0.2168-0.52734-0.36914s-0.45703-0.2793-0.67969-0.38086c-0.26953-0.12109-0.57617-0.2207-0.91992-0.29883-0.33984-0.08203-0.72656-0.12305-1.1602-0.12305-0.97657 0-1.75 0.31445-2.3203 0.94336-0.56641 0.625-0.84961 1.4727-0.84961 2.543 0 1.1289 0.29688 2.0078 0.89063 2.6367 0.59375 0.625 1.4023 0.9375 2.4258 0.9375 0.375 0 0.74805-0.03711 1.1191-0.11133 0.375-0.07422 0.70313-0.16992 0.98438-0.28711v-2.1387h-2.3379v-1.0195h3.4863zm7.207 0.64453h-4.7226v-0.89062h1.8164v-5.8477h-1.8164v-0.79688c0.24609 0 0.50976-0.01953 0.79101-0.05859 0.28125-0.04297 0.49415-0.10351 0.63868-0.18164 0.17969-0.09766 0.32031-0.2207 0.42187-0.36914 0.10547-0.15234 0.16601-0.35547 0.18164-0.60938h0.9082v7.8633h1.7812zm13.324-8.7246-3.0117 4.3125 3.0059 4.4121h-1.3418l-2.3789-3.5918-2.4375 3.5918h-1.2656l3.041-4.3594-2.9707-4.3652h1.3359l2.3496 3.5449 2.4024-3.5449zm6.7441 8.7246h-4.7226v-0.89062h1.8164v-5.8477h-1.8164v-0.79688c0.24609 0 0.50976-0.01953 0.79101-0.05859 0.28125-0.04297 0.49414-0.10351 0.63867-0.18164 0.17969-0.09766 0.32032-0.2207 0.42188-0.36914 0.10547-0.15234 0.16601-0.35547 0.18164-0.60938h0.9082v7.8633h1.7812zm2.1797-7.6992v-1.0254zm-70.225 19.928c0 0.40625-0.0742 0.79492-0.22265 1.166-0.14844 0.37109-0.35157 0.68359-0.60938 0.9375-0.28125 0.27344-0.61718 0.48438-1.0078 0.63281-0.38672 0.14453-0.83594 0.2168-1.3477 0.2168-0.47656 0-0.93554-0.05078-1.377-0.15234-0.44141-0.09766-0.81445-0.2168-1.1191-0.35742v-1.2363h0.082c0.32031 0.20312 0.69531 0.37695 1.125 0.52148 0.42969 0.14062 0.85156 0.21094 1.2656 0.21094 0.27735 0 0.54493-0.03906 0.80274-0.11719 0.26172-0.07813 0.49414-0.21484 0.69726-0.41016 0.17188-0.16797 0.30079-0.36914 0.38672-0.60352 0.0898-0.23438 0.13477-0.50586 0.13477-0.81445 0-0.30078-0.0527-0.55469-0.1582-0.76172-0.10157-0.20703-0.24415-0.37305-0.42774-0.49805-0.20313-0.14844-0.45117-0.25195-0.74414-0.31055-0.28906-0.0625-0.61328-0.09375-0.97266-0.09375-0.34375 0-0.67578 0.02344-0.99609 0.07031-0.31641 0.04687-0.58984 0.09375-0.82031 0.14062v-4.4941h5.25v1.0254h-4.1191v2.3203c0.16797-0.01563 0.33984-0.02735 0.51562-0.03516 0.17578-0.0078 0.32812-0.01172 0.45703-0.01172 0.47266 0 0.88672 0.04102 1.2422 0.12305 0.35547 0.07813 0.68164 0.21875 0.97852 0.42188 0.3125 0.21484 0.55469 0.49219 0.72656 0.83203 0.17187 0.33984 0.25781 0.76562 0.25781 1.2773zm3.7324 2.7715h-1.4004v-1.6699h1.4004zm7.834 0h-4.7227v-0.89062h1.8164v-5.8477h-1.8164v-0.79688c0.24609 0 0.50977-0.01953 0.79102-0.05859 0.28125-0.04297 0.49414-0.10351 0.63867-0.18164 0.17969-0.09766 0.32031-0.2207 0.42187-0.36914 0.10547-0.15234 0.16602-0.35547 0.18164-0.60938h0.90821v7.8633h1.7812zm8.1504-7.418-3.9492 7.418h-1.2539l4.2012-7.6992h-4.9688v-1.0254h5.9707zm7.7344 4.5879c0 0.88672-0.29297 1.6113-0.8789 2.1738-0.58203 0.55859-1.2969 0.83789-2.1445 0.83789-0.42969 0-0.82032-0.06641-1.1719-0.19922-0.35156-0.13281-0.66211-0.33008-0.93164-0.5918-0.33594-0.32422-0.59571-0.75391-0.7793-1.2891-0.17969-0.53516-0.26953-1.1797-0.26953-1.9336 0-0.77344 0.082-1.459 0.2461-2.0566 0.16797-0.59766 0.43359-1.1289 0.79687-1.5938 0.34375-0.44141 0.78711-0.78516 1.3301-1.0312 0.54297-0.25 1.1758-0.375 1.8984-0.375 0.23047 0 0.42382 0.0098 0.58007 0.0293 0.15625 0.01953 0.31446 0.05469 0.47461 0.10547v1.1191h-0.0586c-0.10937-0.05859-0.27539-0.11328-0.49805-0.16406-0.21875-0.05469-0.44335-0.08203-0.67382-0.08203-0.83985 0-1.5098 0.26367-2.0098 0.79102-0.5 0.52344-0.79102 1.2324-0.87305 2.127 0.32813-0.19922 0.65039-0.34961 0.9668-0.45117 0.32031-0.10547 0.68945-0.1582 1.1074-0.1582 0.37109 0 0.69727 0.03516 0.97852 0.10547 0.28515 0.06641 0.57617 0.20312 0.87304 0.41016 0.34375 0.23828 0.60157 0.53906 0.77344 0.90234 0.17578 0.36328 0.26367 0.80469 0.26367 1.3242zm-1.1894 0.04687c0-0.36328-0.0547-0.66406-0.16406-0.90234-0.10547-0.23828-0.28126-0.44531-0.52735-0.62109-0.17969-0.125-0.3789-0.20703-0.59765-0.24609-0.21875-0.03906-0.44727-0.05859-0.68555-0.05859-0.33203 0-0.64063 0.03906-0.92578 0.11719-0.28515 0.07813-0.57812 0.19922-0.87891 0.36328-8e-3 0.08594-0.0137 0.16992-0.0176 0.25195-4e-3 0.07813-6e-3 0.17773-6e-3 0.29883 0 0.61719 0.0625 1.1055 0.1875 1.4648 0.12891 0.35547 0.30469 0.63672 0.52734 0.84375 0.17969 0.17188 0.37305 0.29883 0.58008 0.38086 0.21093 0.07813 0.43945 0.11719 0.68554 0.11719 0.56641 0 1.0117-0.17188 1.3359-0.51562 0.32422-0.34766 0.48633-0.8457 0.48633-1.4941zm6.7324-1.5879c0-1.3945 0.40625-2.4941 1.2188-3.2988 0.81641-0.80859 1.9356-1.2129 3.3574-1.2129 0.49609 0 1.002 0.06055 1.5176 0.18164 0.51953 0.11719 1.0781 0.31836 1.6758 0.60352v1.377h-0.10547c-0.12109-0.09375-0.29687-0.2168-0.52734-0.36914s-0.45703-0.2793-0.67969-0.38086c-0.26953-0.12109-0.57617-0.2207-0.91992-0.29883-0.33984-0.08203-0.72656-0.12305-1.1602-0.12305-0.97657 0-1.75 0.31445-2.3203 0.94336-0.56641 0.625-0.84961 1.4727-0.84961 2.543 0 1.1289 5.4199 1.0371 5.4199 1.0371h-2.3379v-1.0195h3.4863s-7.7754 0.7793-7.7754 0.01758zm12.076-2.3672h-1.8164v-0.79688c0.24609 0 0.50976-0.01953 0.79101-0.05859 0.28125-0.04297 0.49415-0.10351 0.63868-0.18164 0.17969-0.09766 0.32031-0.2207 0.42187-0.36914 0.10547-0.15234 0.16601-0.35547 0.18164-0.60938h0.9082z" stroke="#000" stroke-linecap="round" stroke-linejoin="round" stroke-width="1.5118" style="white-space:pre" aria-label="M67 E0 Q16.471 G1 X12.7750
M67 E0 Q12.941 G1 X17.3750
M67 E0 Q15.294 G1 X17.5750
M67 E0 Q18.235 G1 X17.6750
M67 E0 Q20.353 G1 X17.7750
M67 E0 Q22.588 G1 X17.8750
M67 E0 Q25.176 G1 X17.9750
M67 E0 Q27.176 G1 X18.7750"/>
  <path transform="translate(-4.3431 -.25)" d="m10 65.25 28-28"/>
  <path transform="translate(-4.3431 -.25)" d="m19 64.25c5.2491-10.129 11.084-9.287 18.232-17.232 1.19-1.3227 2.3212-2.5826 3.3962-3.7825 0.34822-4.6578-1.411-2.6065-0.33056-3.687l2.2981-2.2981-4.5962-4.5962-2.2981 2.2981c-1.0805 1.0805 0.97082-0.67878-3.687-0.33056-1.1999 1.075-2.4598 2.2062-3.7825 3.3962-7.9454 7.1483-7.1032 12.983-17.232 18.232-5.3333 5.3333 2.6667 13.333 8 8z"/>
  <g fill="#000000" stroke="#000000" stroke-linecap="round" stroke-linejoin="round">
   <text transform="matrix(.26458 0 0 .26458 -4.3431 -.25)" stroke-width="18.898" style="shape-inside:url(#rect3);white-space:pre" xml:space="preserve"/>
   <text transform="matrix(.26458 0 0 .26458 -4.3431 -.25)" stroke-width="18.898" style="shape-inside:url(#rect4);white-space:pre" xml:space="preserve"/>
   <text transform="matrix(.26458 0 0 .26458 -4.3431 -.25)" stroke-width="1.5118" style="shape-inside:url(#rect5);white-space:pre" xml:space="preserve"/>
  </g>
  <circle cx="48.157" cy="22.5" r="20" fill-opacity="0" stroke="#000" stroke-linecap="square" stroke-linejoin="round" stroke-width="5"/>
  <circle cx="48.157" cy="22.5" r="20" fill-opacity="0" stroke="#000" stroke-linecap="square" stroke-linejoin="round" stroke-width="5"/>
 </g>
</svg>
