<?xml version="1.0" encoding="UTF-8" standalone="no"?>
<!-- Created with Inkscape (http://www.inkscape.org/) -->

<svg
   width="73.295837mm"
   height="73.617691mm"
   viewBox="0 0 73.295837 73.617691"
   version="1.1"
   id="svg1"
   inkscape:version="1.4.2 (f4327f4, 2025-05-13)"
   sodipodi:docname="raster.svg"
   inkscape:export-filename="Z:\Master RISE\Python\CNC\ALIG_Project\assets\raster_black.png"
   inkscape:export-xdpi="96"
   inkscape:export-ydpi="96"
   xmlns:inkscape="http://www.inkscape.org/namespaces/inkscape"
   xmlns:sodipodi="http://sodipodi.sourceforge.net/DTD/sodipodi-0.dtd"
   xmlns="http://www.w3.org/2000/svg"
   xmlns:svg="http://www.w3.org/2000/svg">
  <sodipodi:namedview
     id="namedview1"
     pagecolor="#ffffff"
     bordercolor="#000000"
     borderopacity="0.25"
     inkscape:showpageshadow="2"
     inkscape:pageopacity="0.0"
     inkscape:pagecheckerboard="0"
     inkscape:deskcolor="#d1d1d1"
     inkscape:document-units="mm"
     showgrid="true"
     inkscape:zoom="1.4142136"
     inkscape:cx="39.244426"
     inkscape:cy="136.47161"
     inkscape:window-width="1440"
     inkscape:window-height="890"
     inkscape:window-x="-6"
     inkscape:window-y="-6"
     inkscape:window-maximized="1"
     inkscape:current-layer="svg1">
    <inkscape:grid
       id="grid1"
       units="mm"
       originx="-13.352083"
       originy="-14.882307"
       spacingx="0.99999999"
       spacingy="0.99999999"
       empcolor="#0099e5"
       empopacity="0.30196078"
       color="#0099e5"
       opacity="0.14901961"
       empspacing="5"
       enabled="true"
       visible="true" />
  </sodipodi:namedview>
  <defs
     id="defs1" />
  <g
     id="g11">
    <path
       style="opacity:1;baseline-shift:baseline;display:inline;overflow:visible;vector-effect:none;enable-background:accumulate;stop-color:#000000;stop-opacity:1"
       d="m 35,21.5 v 7 h 35 c 7.434269,0 9.648438,3.545232 9.648437,6.5 0,2.954768 -2.214168,6.500001 -9.648437,6.5 H 30 c -10.096288,-2e-6 -16.648437,6.454768 -16.648437,13.5 -1e-6,7.045232 6.55215,13.5 16.648437,13.5 h 40 c 7.434269,0 9.648438,3.545232 9.648437,6.5 0,2.954768 -2.214168,6.5 -9.648437,6.5 H 20 v 7 H 70 C 80.096288,88.499999 86.648437,82.045231 86.648437,75 86.648438,67.954769 80.096287,61.5 70,61.5 H 30 C 22.565731,61.5 20.351562,57.954768 20.351562,55 20.351563,52.045232 22.565731,48.499999 30,48.5 H 70 C 80.096288,48.500002 86.648437,42.045231 86.648437,35 86.648438,27.954769 80.096287,21.500001 70,21.5 Z"
       id="path8"
       transform="translate(-13.352084,-14.882306)" />
    <path
       style="opacity:1;baseline-shift:baseline;display:inline;overflow:visible;vector-effect:none;enable-background:accumulate;stop-color:#000000;stop-opacity:1"
       d="m 20,25 15,-8.660254 0,17.320508 z"
       id="path10"
       transform="matrix(1.1122372,0,0,0.89868513,-17.280386,-12.349434)" />
    <path
       style="opacity:1;baseline-shift:baseline;display:inline;overflow:visible;vector-effect:none;enable-background:accumulate;stop-color:#000000;stop-opacity:1"
       d="M 36.5,13.742188 17,25 36.5,36.257812 Z m -3,5.195312 v 12.125 L 23,25 Z"
       id="path11"
       transform="matrix(1.1122372,0,0,0.89868513,-17.280386,-12.349434)" />
  </g>
  <g
     inkscape:label="Calque 1"
     inkscape:groupmode="layer"
     id="layer1"
     transform="translate(-13.352084,-14.882306)" />
</svg>
