<?xml version="1.0" encoding="UTF-8" standalone="no"?>
<!-- Created with Inkscape (http://www.inkscape.org/) -->

<svg
   width="65.758842mm"
   height="65.758842mm"
   viewBox="0 0 65.758842 65.758843"
   version="1.1"
   id="svg1"
   inkscape:version="1.4.2 (f4327f4, 2025-05-13)"
   sodipodi:docname="vectorinfill.svg"
   inkscape:export-filename="Z:\Master RISE\Python\CNC\ALIG_Project\assets\raster_black.png"
   inkscape:export-xdpi="96"
   inkscape:export-ydpi="96"
   xmlns:inkscape="http://www.inkscape.org/namespaces/inkscape"
   xmlns:sodipodi="http://sodipodi.sourceforge.net/DTD/sodipodi-0.dtd"
   xmlns="http://www.w3.org/2000/svg"
   xmlns:svg="http://www.w3.org/2000/svg">
  <sodipodi:namedview
     id="namedview1"
     pagecolor="#ffffff"
     bordercolor="#000000"
     borderopacity="0.25"
     inkscape:showpageshadow="2"
     inkscape:pageopacity="0.0"
     inkscape:pagecheckerboard="0"
     inkscape:deskcolor="#d1d1d1"
     inkscape:document-units="mm"
     showgrid="true"
     inkscape:zoom="2"
     inkscape:cx="126.75"
     inkscape:cy="148.5"
     inkscape:window-width="1440"
     inkscape:window-height="890"
     inkscape:window-x="-6"
     inkscape:window-y="-6"
     inkscape:window-maximized="1"
     inkscape:current-layer="svg1">
    <inkscape:grid
       id="grid1"
       units="mm"
       originx="-24.241162"
       originy="-39.999999"
       spacingx="0.99999999"
       spacingy="0.99999999"
       empcolor="#0099e5"
       empopacity="0.30196078"
       color="#0099e5"
       opacity="0.14901961"
       empspacing="5"
       enabled="true"
       visible="true" />
  </sodipodi:namedview>
  <defs
     id="defs1">
    <rect
       x="78.073151"
       y="-7"
       width="226.77167"
       height="177.07874"
       id="rect1" />
    <rect
       x="75.590546"
       y="-17.952742"
       width="264.56693"
       height="207.87402"
       id="rect6" />
    <rect
       x="75.590546"
       y="0.94489628"
       width="264.56693"
       height="188.97638"
       id="rect5" />
    <rect
       x="132.28346"
       y="19.842533"
       width="132.28346"
       height="132.28346"
       id="rect4" />
    <rect
       x="159"
       y="38.740173"
       width="86.669289"
       height="94.48819"
       id="rect3" />
    <inkscape:path-effect
       effect="powerstroke"
       message=""
       id="path-effect2"
       is_visible="true"
       lpeversion="1.3"
       scale_width="1.3"
       interpolator_type="CubicBezierFit"
       interpolator_beta="0.12230216"
       start_linecap_type="round"
       end_linecap_type="square"
       offset_points="0.57575758,4.3514266 | 0.86363637,4.8953549 | 1.8,2.5"
       linejoin_type="round"
       miter_limit="10"
       not_jump="false"
       sort_points="true" />
    <inkscape:path-effect
       effect="fill_between_many"
       method="bsplinespiro"
       autoreverse="false"
       close="false"
       join="false"
       linkedpaths="#path2,0,1"
       id="path-effect3"
       is_visible="true"
       lpeversion="0" />
    <clipPath
       clipPathUnits="userSpaceOnUse"
       id="clipPath6">
      <circle
         style="fill:#000000;fill-opacity:0;stroke:#000000;stroke-width:18.8976;stroke-linecap:square;stroke-linejoin:round"
         id="circle7"
         cx="176.01736"
         cy="69.299355"
         r="75.590553" />
    </clipPath>
  </defs>
  <g
     inkscape:label="Calque 1"
     inkscape:groupmode="layer"
     id="layer1"
     transform="translate(-24.241163,-39.999997)" />
  <circle
     style="fill:#ffffff;stroke:#000000;stroke-width:5;stroke-linecap:round;stroke-linejoin:round;fill-opacity:0;stroke-dasharray:none"
     id="path1"
     cx="33.338516"
     cy="33.61842"
     r="28.618422" />
  <g
     id="g11"
     transform="matrix(0.73137647,0,0,0.62023605,7.1280239,8.7246409)"
     style="stroke-width:0;stroke-dasharray:none">
    <path
       style="baseline-shift:baseline;display:inline;overflow:visible;opacity:1;enable-background:accumulate;stop-color:#000000;stop-opacity:1;stroke-width:0;stroke-dasharray:none"
       d="m 54.535083,21.713292 v 7 L 70.195825,28.5 c 7.433773,-0.101245 9.648438,3.545232 9.648437,6.5 0,2.954768 -2.214168,6.5 -9.648437,6.5 l -46.410243,0 C 13.689294,41.5 7.1371446,47.954768 7.1371446,55 c -1e-6,7.045232 6.5521504,13.5 16.6484374,13.5 l 46.246667,0 c 7.434269,0 9.648438,3.545232 9.648437,6.5 0,2.954768 -2.214168,6.5 -9.648437,6.5 H 20 v 7 h 50.032249 c 10.096288,0 16.648437,-6.454769 16.648437,-13.5 1e-6,-7.045231 -6.55215,-13.5 -16.648437,-13.5 l -46.246667,0 c -7.434269,0 -9.648438,-3.545232 -9.648438,-6.5 1e-6,-2.954768 2.214169,-6.5 9.648438,-6.5 l 46.410243,0 c 10.096288,0 16.648437,-6.454769 16.648437,-13.5 10e-7,-7.045231 -6.552824,-13.637498 -16.648437,-13.5 z"
       id="path8"
       transform="translate(-13.352084,-14.882306)"
       sodipodi:nodetypes="ccsssssssssccsssssssssc" />
    <path
       style="baseline-shift:baseline;display:inline;overflow:visible;opacity:1;enable-background:accumulate;stop-color:#000000;stop-opacity:1;stroke-width:0;stroke-dasharray:none"
       d="m 36.522416,25 15,-8.660254 v 17.320508 z"
       id="path10"
       transform="matrix(1.1122372,0,0,0.89868513,-17.280386,-12.349434)"
       sodipodi:nodetypes="cccc" />
    <path
       style="baseline-shift:baseline;display:inline;overflow:visible;opacity:1;enable-background:accumulate;stop-color:#000000;stop-opacity:1;stroke-width:0;stroke-dasharray:none"
       d="M 53.022416,13.742188 33.522416,25 l 19.5,11.257812 z m -3,5.195312 v 12.125 L 39.522416,25 Z"
       id="path11"
       transform="matrix(1.1122372,0,0,0.89868513,-17.280386,-12.349434)"
       sodipodi:nodetypes="cccccccc" />
  </g>
</svg>
